<svg xmlns="http://www.w3.org/2000/svg" width="74" height="70" viewBox="0 0 74 70">
  <defs>
    <style>
      .cls-1 {
        fill: #1085e4;
        fill-rule: evenodd;
      }
    </style>
  </defs>
  <path id="icon" class="cls-1" d="M1366.43,1910.48a26.43,26.43,0,1,0-52.86-.07v0.07a11.215,11.215,0,0,0-10.57,11.16v1.32a11.22,11.22,0,0,0,11.23,11.23h0.6l4.69,7.46a17.679,17.679,0,0,0,15.13,8.39h0.92a5.29,5.29,0,1,0,0-2.64h-0.92a15.091,15.091,0,0,1-12.89-7.2l-3.83-6.01h0.93a2.65,2.65,0,0,0,2.64-2.64v-18.49a2.652,2.652,0,0,0-2.64-2.65h-2.65a23.79,23.79,0,0,1,47.58,0h-2.65a2.652,2.652,0,0,0-2.64,2.65v18.49a2.65,2.65,0,0,0,2.64,2.64h4.63a11.22,11.22,0,0,0,11.23-11.23v-1.32A11.215,11.215,0,0,0,1366.43,1910.48Zm-25.77,35.6a2.64,2.64,0,1,1-2.64,2.64A2.644,2.644,0,0,1,1340.66,1946.08Zm-21.8-33.02v18.49h-4.63a8.57,8.57,0,0,1-8.59-8.59v-1.32a8.568,8.568,0,0,1,8.59-8.58h4.63Zm55.5,9.9a8.576,8.576,0,0,1-8.59,8.59h-4.63v-18.49h4.63a8.574,8.574,0,0,1,8.59,8.58v1.32Zm-23.39-28.99a5.721,5.721,0,0,1-.53-0.33c-0.2-.13-0.4-0.26-0.53-0.33a1.237,1.237,0,0,0-1.78.46,1.3,1.3,0,0,0,.46,1.79,4.146,4.146,0,0,1,.53.33,2.916,2.916,0,0,0,.59.33,1.3,1.3,0,0,0,.66.2,1.23,1.23,0,0,0,1.13-.67A1.333,1.333,0,0,0,1350.97,1893.97ZM1340,1890.6a19.174,19.174,0,0,0-14.54,6.67,1.327,1.327,0,0,0,1,2.18,1.2,1.2,0,0,0,.99-0.46,16.579,16.579,0,0,1,16.12-5.35,1.4,1.4,0,0,0,1.58-.99,1.367,1.367,0,0,0-.99-1.58A17.877,17.877,0,0,0,1340,1890.6Z" transform="translate(-1303 -1884)"/>
</svg>
