<svg xmlns="http://www.w3.org/2000/svg" width="70" height="70" viewBox="0 0 70 70">
  <defs>
    <style>
      .cls-1 {
        fill: #1085e4;
        fill-rule: evenodd;
      }
    </style>
  </defs>
  <path id="icon" class="cls-1" d="M613.947,2095.49l-4.054-.78a7.056,7.056,0,0,1-4.353-11.1l2.545-3.47a1.292,1.292,0,0,0-.129-1.68l-5.5-5.5a1.3,1.3,0,0,0-1.644-.16l-3.419,2.32a7.055,7.055,0,0,1-10.922-4.77l-0.654-4.25a1.3,1.3,0,0,0-1.281-1.1h-7.778a1.3,1.3,0,0,0-1.273,1.05l-1.007,5.24a7.057,7.057,0,0,1-10.877,4.51l-4.415-3a1.307,1.307,0,0,0-1.644.16l-5.5,5.5a1.293,1.293,0,0,0-.13,1.68l2.546,3.48a7.049,7.049,0,0,1-4.354,11.09l-4.055.78a1.288,1.288,0,0,0-1.05,1.27v7.78a1.3,1.3,0,0,0,1.1,1.28l4.256,0.65a7.049,7.049,0,0,1,4.764,10.92l-2.315,3.42a1.3,1.3,0,0,0,.157,1.65l5.5,5.5a1.3,1.3,0,0,0,1.683.13l3.473-2.55a7.048,7.048,0,0,1,11.091,4.35l0.78,4.06a1.3,1.3,0,0,0,1.273,1.05h7.778a1.3,1.3,0,0,0,1.281-1.1l0.46-2.99a7.048,7.048,0,0,1,11.136-4.61l2.443,1.78a1.3,1.3,0,0,0,1.682-.12l5.5-5.5a1.3,1.3,0,0,0,.157-1.65l-2.315-3.42a7.049,7.049,0,0,1,4.765-10.92l4.254-.65a1.3,1.3,0,0,0,1.1-1.28v-7.78A1.288,1.288,0,0,0,613.947,2095.49Zm-1.54,7.93-3.156.49a9.646,9.646,0,0,0-6.517,14.94l1.715,2.53-3.956,3.96-1.545-1.13a9.637,9.637,0,0,0-15.233,6.3l-0.29,1.9H577.83l-0.578-3a9.642,9.642,0,0,0-15.171-5.96l-2.575,1.89-3.957-3.96,1.716-2.53a9.641,9.641,0,0,0-6.517-14.94l-3.155-.49v-5.59l3-.58a9.638,9.638,0,0,0,5.955-15.17l-1.888-2.57,3.956-3.96,3.53,2.39a9.648,9.648,0,0,0,14.876-6.16l0.805-4.19h5.595l0.486,3.16a9.647,9.647,0,0,0,14.938,6.52l2.533-1.72,3.957,3.96-1.889,2.57a9.64,9.64,0,0,0,5.956,15.17l3,0.58v5.59Zm-31.759-16.38a13.61,13.61,0,1,0,13.611,13.61A13.623,13.623,0,0,0,580.648,2087.04Zm0,24.63a11.02,11.02,0,1,1,11.019-11.02A11.035,11.035,0,0,1,580.648,2111.67Zm0-18.15a7.13,7.13,0,1,0,7.13,7.13A7.139,7.139,0,0,0,580.648,2093.52Zm0,11.66a4.535,4.535,0,1,1,4.537-4.53A4.537,4.537,0,0,1,580.648,2105.18Z" transform="translate(-545 -2065)"/>
</svg>
