<svg xmlns="http://www.w3.org/2000/svg" width="70" height="70" viewBox="0 0 70 70">
  <defs>
    <style>
      .cls-1 {
        fill: #1085e4;
        fill-rule: evenodd;
      }
    </style>
  </defs>
  <path id="icon" class="cls-1" d="M962.755,1929.64a1.115,1.115,0,1,0,0-2.23H927.4a0.172,0.172,0,0,1-.166-0.17V1886.4a0.173,0.173,0,0,1,.166-0.17h53.881a0.173,0.173,0,0,1,.166.17v19.66a1.117,1.117,0,1,0,2.234,0V1886.4a2.4,2.4,0,0,0-2.4-2.4H927.4a2.4,2.4,0,0,0-2.4,2.4v40.84a2.4,2.4,0,0,0,2.4,2.4h20.135v6.75h-8.589a1.115,1.115,0,1,0,0,2.23h23.809a1.115,1.115,0,1,0,0-2.23h-1.609v-6.75h1.609Zm-3.843,6.75h-9.143v-6.75h9.143v6.75Zm3.843-16.55h-32.17a1.115,1.115,0,1,0,0,2.23h32.17A1.115,1.115,0,1,0,962.755,1919.84Zm29.845-10.43H968.506a2.4,2.4,0,0,0-2.4,2.4v39.79a2.4,2.4,0,0,0,2.4,2.4H992.6a2.4,2.4,0,0,0,2.4-2.4v-39.79A2.4,2.4,0,0,0,992.6,1909.41Zm-24.26,6.7h24.426v26.72H968.34v-26.72Zm0.166-4.47H992.6a0.173,0.173,0,0,1,.166.17v2.07H968.34v-2.07A0.173,0.173,0,0,1,968.506,1911.64Zm24.094,40.13H968.506a0.173,0.173,0,0,1-.166-0.17v-6.54h24.426v6.54A0.173,0.173,0,0,1,992.6,1951.77Zm-9.813-4.47h-4.468a1.115,1.115,0,1,0,0,2.23h4.468A1.115,1.115,0,1,0,982.787,1947.3Z" transform="translate(-925 -1884)"/>
</svg>
