<svg xmlns="http://www.w3.org/2000/svg" width="73" height="70" viewBox="0 0 73 70">
  <defs>
    <style>
      .cls-1 {
        fill: #1085e4;
        fill-rule: evenodd;
      }
    </style>
  </defs>
  <path id="icon" class="cls-1" d="M1376.84,1514.73a12.482,12.482,0,0,0-3.21-5.28,12.655,12.655,0,0,0-8.98-3.69,12.859,12.859,0,0,0-5.01,1.02l-12.5-12.39,16.59-16.33,3.93-.11a1.406,1.406,0,0,0,1.16-.67l5.62-9.38a1.364,1.364,0,0,0-.21-1.68l-4.86-4.82a1.407,1.407,0,0,0-1.69-.21l-9.46,5.58a1.382,1.382,0,0,0-.68,1.14l-0.11,3.89-16.55,16.38-11.36-11.26a12.614,12.614,0,0,0-10.36-14.56,12.833,12.833,0,0,0-9.21,1.93,1.372,1.372,0,0,0-.37,1.91,1.293,1.293,0,0,0,.47.43l6.31,3.49c1.38,0.78,1.66,3.12.54,5.11s-3.28,3-4.68,2.23l-5.85-3.14a1.381,1.381,0,0,0-1.88.54,1.318,1.318,0,0,0-.17.75,12.676,12.676,0,0,0,13.47,11.79,12.888,12.888,0,0,0,4.2-.99l10.33,10.24-4.47,4.43-1.01-.99a2.926,2.926,0,0,0-4.01,0l-1.39,1.38a2.719,2.719,0,0,0-.15,3.78l-16.43,16.27a2.732,2.732,0,0,0-.09,3.89,0.647,0.647,0,0,0,.09.08l4.69,4.66a2.789,2.789,0,0,0,3.93.08,0.647,0.647,0,0,0,.09-0.08l16.44-16.29a2.786,2.786,0,0,0,3.81-.15l1.39-1.38a2.732,2.732,0,0,0,.09-3.89l-0.09-.09-1.01-1,4.44-4.51,13.47,13.36a12.607,12.607,0,0,0,10.42,14.51,12.773,12.773,0,0,0,11.19-3.6,1.37,1.37,0,0,0-.12-1.95,1.216,1.216,0,0,0-.51-0.28l-7.81-2.08a2.547,2.547,0,0,1-1.64-1.59,4.965,4.965,0,0,1-.14-3.25c0.58-2.16,2.43-3.7,3.98-3.29l7.74,2.07a1.148,1.148,0,0,0,.37,0,1.385,1.385,0,0,0,1.41-1.36A1.332,1.332,0,0,0,1376.84,1514.73Zm-17.09-41.4a1.387,1.387,0,0,0,.4-0.94l0.11-3.68,7.88-4.64,3.33,3.31-4.58,7.79-3.78.14a1.411,1.411,0,0,0-.95.4l-16.94,16.78-2.38-2.37Zm-48.16,54.86-4.76-4.69,16.51-16.33,2.39,2.37,2.28,2.34Zm20.32-16.52-1.83-1.83-0.71-.7-5.84-5.83,1.39-1.37,8.33,8.37Zm0.26-6.28-2.39-2.37,4.47-4.43,2.39,2.37Zm35.99,6.63a4.845,4.845,0,0,0-1.26-.17,6.762,6.762,0,0,0-6.12,5.4,7.655,7.655,0,0,0,.26,5.02,5.287,5.287,0,0,0,3.49,3.17l5.16,1.38a9.979,9.979,0,0,1-13.61-3.42,9.774,9.774,0,0,1-1.14-7.3,1.358,1.358,0,0,0-.37-1.28l-31.3-31.06a1.4,1.4,0,0,0-1.64-.19,10.021,10.021,0,0,1-4.65,1.14,9.9,9.9,0,0,1-9.33-6.48l3.17,1.75a4.826,4.826,0,0,0,2.41.61,7.228,7.228,0,0,0,6.04-3.91c1.89-3.34,1.15-7.32-1.62-8.86l-4.04-2.27a9.946,9.946,0,0,1,12.69,5.96,9.74,9.74,0,0,1,.32,5.53,1.351,1.351,0,0,0,.37,1.28l31.37,31.09a1.384,1.384,0,0,0,1.62.25,10.091,10.091,0,0,1,4.66-1.14,9.941,9.941,0,0,1,8.55,4.84Z" transform="translate(-1304 -1461)"/>
</svg>
