<svg xmlns="http://www.w3.org/2000/svg" width="54" height="70.03" viewBox="0 0 54 70.03">
  <defs>
    <style>
      .cls-1 {
        fill: #1085e4;
        fill-rule: evenodd;
      }
    </style>
  </defs>
  <path id="icon" class="cls-1" d="M587.347,1700.33a4.086,4.086,0,1,0,4.168,4.09A4.131,4.131,0,0,0,587.347,1700.33Zm0,5.84a1.755,1.755,0,1,1,1.786-1.75A1.774,1.774,0,0,1,587.347,1706.17Zm5.359-21.02a4.666,4.666,0,1,0-4.764-4.67A4.719,4.719,0,0,0,592.706,1685.15Zm0-7a2.335,2.335,0,1,1-2.382,2.33A2.362,2.362,0,0,1,592.706,1678.15Zm-28.581-22.18a1.187,1.187,0,0,0,.842-0.34l2.382-2.34a1.15,1.15,0,0,0,0-1.65,1.219,1.219,0,0,0-1.684,0l-2.382,2.34a1.148,1.148,0,0,0,0,1.65A1.187,1.187,0,0,0,564.125,1655.97ZM607,1676.69a3.79,3.79,0,0,0-1.149-2.72l-0.664-.65a5.2,5.2,0,0,0,1.812-3.93,5.315,5.315,0,0,0-5.359-5.25,4.582,4.582,0,0,0-.643.05,5.136,5.136,0,0,0,.047-0.63,5.308,5.308,0,0,0-5.358-5.25c-0.217,0-.432.02-0.643,0.04a4.992,4.992,0,0,0,.047-0.63,5.314,5.314,0,0,0-5.359-5.25,4.582,4.582,0,0,0-.643.05,5.138,5.138,0,0,0,.048-0.63,5.317,5.317,0,0,0-5.359-5.26,5.391,5.391,0,0,0-4,1.78l-0.945-.93-4.482-4.39a3.981,3.981,0,0,0-5.547,0l-14.662,14.37a3.8,3.8,0,0,0,0,5.44l4.482,4.39,5.847,5.73a5.171,5.171,0,0,0-.317,8.92,1.416,1.416,0,0,0,.27.28l12.809,12.51v2.1h-2.381V1712H605.8v-15.17h-2.382v-3.54a9.739,9.739,0,0,0,1.744-13.22l0.68-.66A3.79,3.79,0,0,0,607,1676.69Zm-2.382-7.3a2.906,2.906,0,0,1-1.116,2.28l-4.181-4.1a3,3,0,0,1,2.319-1.09A2.951,2.951,0,0,1,604.614,1669.39Zm-5.954-5.83a2.89,2.89,0,0,1-1.116,2.27l-4.181-4.1a3,3,0,0,1,2.319-1.09A2.953,2.953,0,0,1,598.66,1663.56Zm-5.954-5.84a2.909,2.909,0,0,1-1.116,2.28l-4.181-4.1a3,3,0,0,1,2.318-1.1A2.954,2.954,0,0,1,592.706,1657.72Zm-8.932-8.75a2.952,2.952,0,0,1,2.977,2.92,2.9,2.9,0,0,1-1.116,2.27l-4.181-4.1A3,3,0,0,1,583.774,1648.97Zm-27.957,12.28a1.5,1.5,0,0,1,0-2.14l14.662-14.37a1.427,1.427,0,0,1,.508-0.33,2.256,2.256,0,0,1,.265-0.05,1.69,1.69,0,0,1,.634,0,2.256,2.256,0,0,1,.265.05,1.436,1.436,0,0,1,.508.33l2.8,2.74-16.841,16.51Zm21.323-12.12,1.4,1.38,5.954,5.83,0.682,0.67,5.272,5.17,0.683,0.67,5.272,5.17,0.682,0.67,5.954,5.83,1.12,1.1a1.5,1.5,0,0,1,0,2.14l-0.521.51h0l-14.14,13.86a1.564,1.564,0,0,1-2.18,0l-9.5-9.31h1.186a5.256,5.256,0,1,0,0-10.51H567.1l-6.807-6.67Zm-10.681,25.59,0.494-.05a0.742,0.742,0,0,1,.148-0.02h11.908a2.916,2.916,0,1,1,0,5.83H567.1A2.909,2.909,0,0,1,566.459,1674.72Zm10.765,34.95v-10.51h10.035a6.582,6.582,0,0,1,6.637,6.51v4H577.224Zm26.2,0h-7.145v-4a8.737,8.737,0,0,0-2.934-6.51h10.079v10.51Zm0.03-27.91a7.449,7.449,0,0,1-1.937,10.04l-0.474.35v4.68H579.605v-3.18l-0.421-.34c-0.053-.05-0.11-0.09-0.214-0.17L568.4,1682.82h6.055l11.181,10.96a4,4,0,0,0,5.549,0Z" transform="translate(-553 -1641.97)"/>
</svg>
