<svg xmlns="http://www.w3.org/2000/svg" width="55" height="70" viewBox="0 0 55 70">
  <defs>
    <style>
      .cls-1 {
        fill: #1085e4;
        fill-rule: evenodd;
      }
    </style>
  </defs>
  <path id="icon" class="cls-1" d="M970.931,1461H933v70h55v-52.98Zm0.686,3.98,12.388,12.35H971.617v-12.35Zm-36.277,63.69v-65.34h33.937v16.34h16.382v49H935.34Zm9.362-47.84h10.532a1.165,1.165,0,1,0,0-2.33H944.7A1.165,1.165,0,1,0,944.7,1480.83Zm19.894,23.34H944.7a1.165,1.165,0,1,0,0,2.33H964.6A1.165,1.165,0,1,0,964.6,1504.17Zm11.7-8.17h-8.192a1.165,1.165,0,1,0,0,2.33H976.3A1.165,1.165,0,1,0,976.3,1496Zm-31.6-5.83h5.851a1.17,1.17,0,0,0,0-2.34H944.7A1.17,1.17,0,1,0,944.7,1490.17Zm17.553,0h8.192a1.17,1.17,0,0,0,0-2.34h-8.192A1.17,1.17,0,1,0,962.255,1490.17Zm-7.021-1.17a1.17,1.17,0,1,0,.339-0.83A1.235,1.235,0,0,0,955.234,1489Zm-4.681,7a1.165,1.165,0,1,0,0,2.33h11.7a1.165,1.165,0,1,0,0-2.33h-11.7Zm-5.851,2.33a1.234,1.234,0,0,0,.831-0.34,1.173,1.173,0,0,0,0-1.65,1.232,1.232,0,0,0-1.662,0,1.2,1.2,0,0,0-.339.83,1.21,1.21,0,0,0,.339.82A1.236,1.236,0,0,0,944.7,1498.33Zm31.6,14h-8.192a1.17,1.17,0,1,0,0,2.34H976.3A1.17,1.17,0,0,0,976.3,1512.33Zm-14.043,0h-11.7a1.17,1.17,0,1,0,0,2.34h11.7A1.17,1.17,0,0,0,962.255,1512.33Zm-18.384.34a1.179,1.179,0,0,0-.339.83,1.163,1.163,0,0,0,.339.83,1.236,1.236,0,0,0,.831.34,1.212,1.212,0,0,0,.831-0.34,1.23,1.23,0,0,0,.339-0.83,1.151,1.151,0,0,0-.339-0.82A1.221,1.221,0,0,0,943.871,1512.67Zm31.6-24.5a1.175,1.175,0,0,0,1.662,1.66,1.186,1.186,0,0,0,0-1.66A1.232,1.232,0,0,0,975.467,1488.17Zm-4.189,17.99a1.216,1.216,0,0,0,.339-0.83,1.254,1.254,0,0,0-.339-0.83,1.232,1.232,0,0,0-1.662,0,1.249,1.249,0,0,0-.339.83,1.211,1.211,0,0,0,.339.83,1.168,1.168,0,0,0,.831.34A1.214,1.214,0,0,0,971.278,1506.16Zm4.189-1.66a1.249,1.249,0,0,0-.339.83,1.17,1.17,0,1,0,2.34,0,1.254,1.254,0,0,0-.339-0.83A1.232,1.232,0,0,0,975.467,1504.5Z" transform="translate(-933 -1461)"/>
</svg>
